<svg width="200" height="300" viewBox="0 0 506 606" fill="none" xmlns="http://www.w3.org/2000/svg">
<path d="M245.672 209.136C231.708 185.708 218.814 164.02 210.539 143.194C207.795 134.749 205.64 126.432 204.307 118.462C199.615 95.6496 201.575 82.2509 210.292 63.787C210.477 63.4008 210.673 63.0035 210.875 62.6061C215.023 60.2387 220.74 58.0335 227.29 57.3899C241.887 55.9515 266.673 59.651 276.152 86.3029C286.151 114.46 264.803 169.359 245.672 209.136ZM335.819 50.3491C334.867 48.5189 331.334 41.898 330.119 39.6313C329.89 39.2115 329.738 38.9373 329.705 38.8757C314.286 10.5727 313.765 15.9344 304.14 14.233C303.782 14.1714 303.413 14.0763 303.054 13.9867C292.092 11.4626 273.252 4.32665 264.047 0.946185C254.535 -2.53502 229.502 4.95349 213.344 6.54298C209.234 6.94036 206.048 7.69594 203.506 8.68658C196.077 11.5689 194.229 16.4661 191.161 20.479C189.369 22.8297 188.115 23.5405 186.452 23.9322C186.419 23.9378 186.374 23.9378 186.352 23.949C173.782 28.4545 144.086 65.0743 150.502 115.608C150.961 120.567 152.003 125.397 153.341 130.126C165.619 178.622 206.709 243.663 216.798 262.121C209.363 279.225 193.496 314.344 188.434 347.422C188.227 348.541 187.001 356.141 186.923 362.522C186.251 379.335 189.403 394.72 199.156 405.768C199.218 405.835 201.071 407.822 201.155 407.912C206.144 412.826 212.022 415.949 217.94 417.824C226.316 421.428 232.688 419.413 238.852 418.367C241.601 420.034 244.479 421.322 247.407 422.324C265.032 428.413 284.752 423.527 293.99 418.367C306.38 414.342 312.029 407.072 315.568 395.8C319.134 385.183 324.593 363.518 312.236 331.454C306.688 317.607 295.524 295.937 278.324 264.438L278.212 264.253C292.002 238.166 328.927 173.619 335.5 154.757C335.858 153.761 336.166 152.799 336.474 151.836C347.638 123.281 354.928 85.5082 335.819 50.3491" fill="white"/>
<path d="M235.191 296.606C231.211 288.933 222.499 272.215 220.64 268.241C200.395 307.676 195.4 351.471 195.081 364.198C195.294 373.982 195.081 388.819 208.922 395.137C227.286 370.137 195.081 332.784 235.191 296.606Z" fill="#ACA9A6"/>
<path d="M281.67 165.092C286.407 141.58 298.215 121.532 283.221 88.8522C270.87 61.9484 249.611 52.3219 227.283 57.3926H227.288C241.896 55.9542 266.687 59.6425 276.155 86.3057C286.155 114.463 264.806 169.362 245.675 209.139C245.238 210.073 244.762 211.008 244.314 211.937C253.614 228.073 261.223 241.958 270.304 258.357C270.304 258.357 282.543 238.611 287.627 229.668C277.202 205.523 278.714 179.739 281.67 165.092Z" fill="#ACA9A6"/>
<path d="M339.68 88.409C339.668 87.5975 339.668 86.7692 339.652 85.9912V85.8569C339.646 85.5043 339.629 85.1909 339.629 84.8439C339.501 81.3235 339.254 78.2788 338.918 75.7603C338.56 73.2809 338.129 71.434 337.731 70.1131C335.962 64.8129 331.718 58.4774 326.858 52.3825C317.351 40.4557 305.482 29.4971 305.112 29.1501C304.362 29.4804 303.595 29.8777 302.8 30.3367C292.66 36.4036 292.896 44.6421 257.684 27.7845C252.365 25.238 244.051 26.8499 239.398 27.1577C275.002 53.5914 314.076 52.4608 339.68 88.409Z" fill="#BCBAB7"/>
<path d="M312.363 187.9C313.724 185.846 314.956 183.938 316.059 182.203C317.374 180.048 318.623 177.843 319.804 175.61C320.342 174.597 320.862 173.573 321.372 172.543C335.828 143.456 339.882 109.517 339.675 88.406C321.557 35.7849 268.731 59.2523 251.812 26.4439C251.532 26.4607 238.862 27.1994 238.593 27.2274C239.421 28.2852 240.278 29.3262 241.179 30.3672C247.887 38.0236 263.597 53.5604 280.495 57.5229C297.403 61.491 311.58 63.9536 325.845 85.1935C340.111 106.45 324.938 136.399 311.58 165.81C306.249 177.541 305.718 189.327 304.939 200.963C307.112 197.963 307.582 194.471 310.157 191.012C310.908 189.994 311.641 188.953 312.363 187.9Z" fill="#CCC9C6"/>
<path d="M325.848 85.1997C311.576 63.9486 297.406 61.486 280.497 57.5235C263.594 53.5666 247.889 38.0187 241.182 30.3623C240.28 29.3324 239.424 28.2803 238.595 27.2337C226.938 28.3698 217.588 37.7053 211.278 51.0704C209.112 55.6654 207.297 60.7305 205.87 66.0922C210.539 62.0513 218.439 58.2567 227.291 57.3948C249.608 52.3185 270.878 61.945 283.224 88.86C298.223 121.528 286.409 141.587 281.667 165.088C278.711 179.735 277.205 205.52 287.624 229.664C291.247 223.289 295.16 214.475 304.942 200.969C305.72 189.323 306.246 177.536 311.576 165.816C324.941 136.399 340.108 106.445 325.848 85.1997Z" fill="#BBB8B5"/>
<path d="M239.408 27.1501C239.128 27.1669 238.859 27.2062 238.585 27.2174C226.928 28.3703 217.589 37.6889 211.268 51.0653C209.107 55.6658 207.287 60.7252 205.871 66.0981C207.276 64.8836 208.95 63.6973 210.865 62.6059C215.025 60.2441 220.741 58.0333 227.292 57.3897C241.888 55.9569 266.686 59.6507 276.148 86.297C286.153 114.46 264.804 169.359 245.673 209.136C254.962 225.271 260.656 235.502 271.182 252.679C271.182 252.679 316.695 183.312 317.21 182.282C331.66 153.196 339.712 117.522 337.556 88.939C334.118 43.1012 305.48 29.4953 305.111 29.1539C304.36 29.4785 303.588 29.8815 302.798 30.3348C292.664 36.4074 292.401 46.0954 257.19 29.2434C253.422 27.4301 248.4 26.9933 244.145 26.9933C242.392 26.9933 240.763 27.0605 239.408 27.1501" fill="url(#paint0_linear_5_1211)"/>
<path d="M224.686 264.119C208.925 286.092 184.732 403.524 219.904 399.41C275.12 391.681 232.004 279.096 224.686 264.119Z" fill="#9A9794"/>
<path d="M239.408 27.1502C239.128 27.167 238.859 27.2063 238.585 27.2175C226.928 28.3704 217.589 37.689 211.268 51.0653C209.107 55.6659 207.287 60.7253 205.871 66.0982C207.276 64.8837 208.95 63.6974 210.865 62.606C215.025 60.2442 220.741 58.0334 227.292 57.3898C241.888 55.957 266.686 59.6507 276.148 86.2971C286.153 114.46 264.804 169.359 245.673 209.136C254.962 225.271 262.962 241.748 272.061 258.141C272.061 258.141 320.866 173.579 321.37 172.544C335.832 143.452 342.041 109.395 339.684 88.4072C337.276 67.0778 333.105 59.4436 327.864 51.5801C326.034 48.8265 305.48 29.4954 305.111 29.154C304.36 29.4786 303.588 29.8816 302.798 30.3349C292.664 36.4074 292.401 46.0955 257.19 29.2435C253.422 27.4301 248.4 26.9934 244.145 26.9934C242.392 26.9934 240.763 27.0606 239.408 27.1502" fill="url(#paint1_linear_5_1211)"/>
<g opacity="0.279999">
<path d="M261.54 41.4448C246.53 41.6015 235.55 46.4874 235.192 49.9742C305.312 52.2689 310.939 101.308 242.392 225.227C216.402 272.212 206.078 315.408 205.949 344.428V345.519C206.028 363.815 210.244 376.279 217.153 380.202C219.521 381.545 222.057 382.178 224.565 382.217H224.997C235.842 382.066 245.88 370.682 238.843 356.136C230.086 338.047 237.482 300.733 259.883 259.972C282.279 219.193 360.567 107.101 312.361 61.5596C296.332 46.4147 277.855 41.5959 263.002 41.4448H261.54Z" fill="url(#paint2_linear_5_1211)"/>
</g>
<g opacity="0.330002">
<path d="M228.969 48.4733C232.916 47.1916 237.037 46.4808 241.158 46.0499C245.295 45.6077 249.472 45.5349 253.626 45.8092C261.941 46.3633 270.277 48.3949 277.729 52.4358C285.193 56.4319 291.519 62.5156 296.082 69.7075C298.333 73.3231 300.181 77.1737 301.715 81.1418C303.126 85.1379 304.335 89.2012 305.175 93.3652C308.596 110.066 307.028 127.36 303.557 143.82C300.03 160.342 294.593 176.349 288.25 191.818C281.957 207.327 274.622 222.299 267.17 237.102L255.832 259.159L244.713 281.188C237.558 295.919 230.643 310.75 225.862 326.186C224.652 330.043 223.656 333.938 222.872 337.884C222.032 341.801 221.433 345.781 221.22 349.766C220.733 357.741 221.618 365.873 224.82 373.463L223.857 373.972C219.199 366.926 216.903 358.323 216.377 349.783C215.8 341.219 216.836 332.645 218.555 324.334C220.207 315.989 222.754 307.907 225.503 299.96C228.252 292.001 231.477 284.255 234.803 276.588C248.24 245.995 264.057 216.943 278.082 187.347C281.542 179.925 284.98 172.51 288.02 164.948C291.116 157.404 293.955 149.764 296.245 141.979C300.858 126.465 303.473 110.111 301.105 94.0928C300.584 90.0967 299.498 86.1789 298.333 82.3227C297.034 78.5113 295.433 74.8062 293.457 71.3026C289.42 64.3514 283.692 58.374 276.694 54.2492C269.723 50.0964 261.694 47.7681 253.537 46.9006C249.45 46.4696 245.323 46.3745 241.208 46.6375C237.098 46.9118 232.983 47.449 228.997 48.5684L228.969 48.4733Z" fill="#797775"/>
</g>
<g opacity="0.550003">
<path d="M187.557 354.815C187.557 378.915 198.738 393.007 207.651 398.727C210.501 400.558 215.311 401.839 220.411 401.946H221.76C223.843 401.901 225.948 401.66 227.97 401.168C241.709 397.821 252.112 384.042 252.353 358.403V356.556C252.257 346.314 250.583 334.247 246.927 320.283C245.707 315.609 235.954 294.465 234.016 290.721C230.036 283.053 220.876 265.009 219.011 261.035C203.083 297.028 187.876 342.065 187.557 354.815" fill="url(#paint3_linear_5_1211)"/>
</g>
<g opacity="0.440002">
<path d="M211.268 51.0655C209.107 55.6661 207.299 60.7254 205.871 66.0983C207.265 64.8838 208.956 63.6975 210.871 62.6061C215.025 60.2443 220.741 58.0335 227.281 57.3899C241.888 55.9571 266.674 59.6509 276.153 86.2972C286.153 114.46 264.804 169.359 245.673 209.136C254.962 225.271 263.562 240.232 272.637 256.625C272.637 256.625 320.866 173.579 321.37 172.544C335.832 143.458 349.358 88.9389 326.862 52.3806C318.867 39.3905 307.395 29.6465 307.014 29.3051C305.514 29.529 303.588 29.8817 302.798 30.3351C292.664 36.4076 296.186 41.3382 260.303 25.9694C257.369 24.7101 254.279 24.1504 251.143 24.1504C234.571 24.1504 216.581 39.8271 211.268 51.0655" fill="url(#paint4_linear_5_1211)"/>
</g>
<g opacity="0.440002">
<path d="M251.21 26.7027C239.537 26.7867 226.463 36.3184 221.598 41.7752C215.943 48.1276 207.299 60.7257 205.871 66.0986C210.54 62.0633 218.435 58.2577 227.281 57.3902C241.888 55.9574 266.674 59.6512 276.153 86.2975C286.153 114.461 264.804 169.36 245.673 209.136C245.225 210.071 244.766 211.011 244.313 211.934C242.392 215.343 219.806 258.763 219.011 261.035C205.059 301.265 191.56 342.486 191.241 355.229C191.241 377.051 198.979 401.543 220.68 401.884H221.598C223.608 401.856 225.724 401.621 227.97 401.168C248.618 396.954 253.752 363.233 250.651 345.86C250.651 345.86 243.988 317.63 243.674 317.042C243.674 317.042 284.669 234.87 287.625 229.665C291.231 223.291 320.866 173.58 321.37 172.544C335.832 143.458 341.067 109.474 339.678 88.4076C339.191 80.9918 331.716 58.4814 326.862 52.3809C317.35 40.4542 303.588 29.882 302.798 30.3353C292.664 36.4079 294.26 41.417 257.694 27.7832C255.74 27.0557 253.685 26.7195 251.58 26.7027H251.21Z" fill="url(#paint5_linear_5_1211)"/>
</g>
<path d="M226.9 53.45C225.002 53.6459 218.373 54.9388 214.342 56.2764L212.164 59.6118L210.865 62.6063C215.025 60.2444 220.741 58.0336 227.292 57.39C241.888 55.9572 266.686 59.651 276.148 86.2974C286.153 114.46 264.804 169.359 245.673 209.136C245.259 210.003 244.833 210.86 244.419 211.722C247.498 214.308 249.923 216.272 249.923 216.272C250.499 215.32 250.852 214.537 251.367 213.558C271.064 172.522 290.346 114.405 279.888 84.9822C275.817 73.5479 268.785 64.9849 258.982 59.5448C258.366 59.209 254.643 57.4125 253.349 56.92C252.722 56.6625 252.095 56.4275 251.462 56.2036C250.236 55.7783 246.423 54.737 245.796 54.5971C243.411 54.0486 240.937 53.6568 238.428 53.4329C236.558 53.2538 234.649 53.1757 232.762 53.1757C230.786 53.1757 228.804 53.2597 226.9 53.45" fill="url(#paint6_linear_5_1211)"/>
<path d="M271.186 252.678C269.651 250.109 268.739 248.699 268.733 248.693C268.157 247.719 267.613 246.796 267.054 245.861C245.823 207.702 222.963 174.474 210.533 143.199C207.795 134.753 205.64 126.431 204.302 118.472C199.615 95.6485 201.575 82.2498 210.292 63.7915C218.674 46.0273 244.02 23.8584 258.202 30.6473C288.783 45.2829 292.853 38.2198 300.227 32.2088C300.456 32.0353 301.033 31.61 301.268 31.3917C301.431 31.2685 302.366 30.6641 302.522 30.5522C382.698 92.1561 296.75 211.222 271.186 252.678ZM222.268 397.042C220.158 397.372 218.136 397.428 216.205 397.226C213.008 396.801 209.805 395.547 206.743 393.437C202.454 390.482 199.268 386.117 197.628 381.175C192.65 366.271 193.692 336.619 220.32 269.474C223.091 275.507 225.7 281.182 226.848 283.511C242.256 314.679 245.957 343.268 245.974 360.338C244.311 381.824 233.953 394.853 222.268 397.042M335.819 50.348C334.867 48.5234 331.34 41.908 330.119 39.6301C329.89 39.2048 329.738 38.9306 329.705 38.869C314.286 10.5716 313.765 15.9445 304.129 14.2431C303.788 14.1815 303.413 14.0752 303.054 13.9912C292.092 11.4727 273.24 4.32554 264.036 0.956269C254.535 -2.53054 229.502 4.95239 213.344 6.53629C209.223 6.94485 206.048 7.6948 203.507 8.67984C196.077 11.5678 194.229 16.465 191.161 20.4779C189.369 22.823 188.104 23.5449 186.447 23.9255C186.419 23.9367 186.374 23.9367 186.352 23.9535C173.782 28.4533 144.086 65.0788 150.502 115.601C150.95 120.56 152.003 125.395 153.335 130.13C165.619 178.621 206.709 243.673 216.798 262.12C209.363 279.229 193.496 314.343 188.434 347.415C188.227 348.534 187.001 356.151 186.923 362.509V362.521C186.245 379.333 189.392 394.73 199.156 405.773C199.218 405.834 201.071 407.827 201.161 407.916C206.138 412.819 212.022 415.953 217.946 417.834C226.316 421.433 232.688 419.412 238.841 418.36C241.601 420.039 244.479 421.315 247.413 422.322C265.032 428.417 284.752 423.52 293.99 418.36C306.38 414.341 312.018 407.071 315.568 395.805C319.134 385.193 324.593 363.517 312.242 331.458C306.682 317.606 295.524 295.93 278.324 264.437L278.212 264.252C291.997 238.165 328.921 173.623 335.505 154.756C335.858 153.766 336.166 152.803 336.474 151.846C347.638 123.285 354.928 85.5015 335.819 50.348" fill="#EFECE8"/>
<path d="M302.604 202.968C301.445 204.838 298.488 209.259 294.81 214.71C285.639 230.219 276.922 243.371 271.194 252.662C273.058 255.668 277.213 262.434 278.988 265.658C278.758 265.249 278.545 264.852 278.327 264.438L278.209 264.253C279.094 262.585 280.079 260.75 281.143 258.774C281.182 248.285 299.031 211.117 302.604 202.968Z" fill="#DAD7D3"/>
<path d="M263.92 7.88311C257.151 4.25639 248.512 4.54742 240.276 5.9858C237.763 6.42795 231.755 7.58089 231.755 7.58089C231.755 7.58089 243.899 10.564 253.596 13.9892C259.844 16.3791 270.326 20.4255 282.957 13.7654L283.192 13.2225C277.369 12.6012 270.354 11.3307 263.92 7.88311Z" fill="#BBB8B5"/>
<path d="M224.403 10.7517C221.626 11.8543 219.196 12.8224 217.472 13.7738C194.684 26.4058 188.212 38.9091 187.131 39.9221C186.482 44.3212 185.485 47.6962 184.993 53.0467C189.209 55.2183 209.65 51.2389 223.239 40.5434C224.924 39.1331 226.699 37.7843 228.546 36.5026C229.263 35.9486 229.918 35.6126 230.467 35.1984C230.556 35.1648 230.635 34.9915 230.719 34.9579C238.49 28.0179 247.633 11.0037 256.182 15.2069C256.865 15.5427 257.543 15.8504 258.203 16.1302C257.196 15.5481 256.182 14.9718 255.158 14.4178C249.032 11.1324 242.549 8.73693 235.506 8.73693C231.962 8.73693 228.266 9.3469 224.403 10.7517Z" fill="url(#paint7_linear_5_1211)"/>
<path d="M190.709 24.8683C189.695 27.3924 188.855 29.827 188.284 32.9501C187.887 35.0936 187.506 37.4331 187.137 39.9349C201.503 22.1147 215.982 14.4918 217.482 13.781C219.162 12.9527 223.775 9.7905 225.825 9.11329C210.237 13.3389 201.537 19.6912 192.226 22.5064C191.812 22.8814 190.949 24.275 190.709 24.8683Z" fill="#F6F2EE"/>
<path d="M267.04 31.0454C243.223 17.697 230.944 34.6721 230.939 34.6777C230.866 34.7001 230.793 34.9352 230.726 34.9632C222.26 42.53 213.789 53.0744 210.284 63.7923C218.677 46.0224 244.023 23.8535 258.205 30.648C291.742 46.6941 293.428 36.6926 302.526 30.5529C295.88 34.5658 290.382 44.1195 267.04 31.0454Z" fill="#EBE7E3"/>
<path d="M300.182 31.7348C284.55 38.2718 273.996 25.4608 258.207 16.1365C257.541 15.8455 256.869 15.5488 256.186 15.2018C245.218 9.73934 226.759 38.7028 226.803 38.6804C230.331 36.0835 243.225 17.698 267.042 31.0464C290.378 44.1205 293.855 36.6935 300.199 32.2273C300.518 32.009 302.528 30.5538 302.528 30.5538C302.528 30.5538 300.501 31.4885 300.199 31.7236L300.182 31.7348Z" fill="#FFFBF7"/>
<path d="M223.238 40.5429C209.638 50.8802 189.208 55.2121 184.998 53.0517C183.144 73.4745 178.699 99.8801 183.223 129.717C185.199 142.746 187.842 156.615 190.037 170.338C184.46 126.504 183.279 73.883 223.238 40.5429Z" fill="#EFECE8"/>
<path d="M203.506 8.68463C196.077 11.5726 194.229 16.4642 191.161 20.4771C189.358 22.8277 188.104 23.5497 186.447 23.9303C187.583 23.6897 188.927 23.3706 190.455 22.9956C194.604 21.9546 198.12 20.4155 202.235 18.6022C206.015 16.9343 210.292 15.0426 215.785 12.8039C218.836 11.5614 225.286 9.21633 228.685 8.29845C232.128 7.36379 241.075 5.84146 241.562 5.74631C241.562 5.74631 245 5.30417 246.114 5.13626C245.795 5.15865 208.254 7.30222 203.506 8.68463Z" fill="#EFECE8"/>
<path d="M245.175 5.19443C244.38 5.2504 208.25 7.30421 203.508 8.68662C196.084 11.5746 194.231 16.4719 191.163 20.4736C189.36 22.8298 188.106 23.5517 186.454 23.9323C187.585 23.6916 188.929 23.3784 190.446 22.9922C194.6 21.9568 198.122 20.412 202.237 18.5931C206.011 16.9308 210.294 15.0503 215.792 12.806C218.832 11.5635 225.282 9.20722 228.675 8.28934C232.13 7.36587 240.729 5.87151 241.558 5.75397C242.7 5.59167 245.001 5.30058 246.115 5.14387C245.796 5.15507 245.483 5.16645 245.175 5.19443" fill="url(#paint8_linear_5_1211)"/>
<path d="M299.269 409.179C298.899 409.957 298.608 410.635 298.227 411.306C296.923 413.864 295.506 416.237 293.989 418.364C306.452 414.312 312.029 407.187 315.567 395.797C302.365 409.655 299.269 409.179 299.269 409.179Z" fill="#D2CFCB"/>
<path d="M270.307 412.979C260.38 408.63 252.401 417.16 247.413 422.331C265.038 428.415 284.752 423.524 293.995 418.358C295.501 416.237 296.924 413.869 298.228 411.311C293.015 419.975 279.909 417.188 270.307 412.979Z" fill="#DEDBD7"/>
<path d="M239.798 398.204C244.826 388.309 247.491 370.382 245.974 360.342C244.289 381.761 233.931 394.851 222.274 397.04C220.163 397.376 218.131 397.426 216.21 397.224C213.008 396.799 209.811 395.551 206.737 393.441C206.227 393.088 205.74 392.708 205.259 392.322C196.362 389.674 189.201 382.141 187.096 372.918C187.079 372.822 187.04 372.744 187.023 372.655C187.113 374.154 187.253 375.649 187.432 377.121L187.466 377.44C188.014 381.895 188.938 386.171 190.315 390.195C200.119 407.942 228.332 420.77 239.798 398.204Z" fill="#EBE7E3"/>
<path d="M222.269 397.04C220.158 397.376 218.137 397.427 216.205 397.225C213.014 396.8 209.806 395.552 206.743 393.442C204.397 391.819 202.376 389.781 200.752 387.442C192.707 379.114 188.273 364.26 187.561 354.175L187.533 353.805V353.811V353.805V353.822C187.231 356.497 186.957 359.637 186.923 362.519V362.531C186.677 368.637 186.94 374.553 187.836 380.149C187.869 380.25 187.886 380.356 187.903 380.474C196.811 397.404 221.53 414.29 237.985 385.774C233.707 392.082 228.153 395.938 222.269 397.04Z" fill="#F2EFEA"/>
<path d="M329.709 38.8717C314.29 10.5687 313.769 15.936 304.133 14.2402C291.088 14.9398 276.508 24.0402 258.206 16.1375C283.966 31.5511 305.662 -1.69951 330.062 39.5265C330.078 39.5601 330.364 40.0974 330.386 40.131C330.28 39.9463 330.202 39.7784 330.112 39.6329C329.894 39.2075 329.742 38.9333 329.709 38.8717Z" fill="#E7E4E0"/>
<path d="M302.524 30.5475C302.67 30.458 302.832 30.3629 302.983 30.2678C308.767 26.4619 320.054 24.4527 330.121 39.6256C315.334 14.5967 301.555 16.8969 287.262 19.2084C277.928 20.7196 268.377 22.2252 258.203 16.1302C272.531 25.3594 288.824 39.0435 302.524 30.5475" fill="url(#paint9_linear_5_1211)"/>
<path d="M217.946 417.829C224.424 413.782 229.95 408.124 234.346 401.559C222.101 412.808 195.59 409.159 187.802 379.938C189.364 389.817 192.903 398.688 199.157 405.767C199.218 405.84 201.071 407.827 201.161 407.911C206.138 412.825 212.023 415.948 217.946 417.829Z" fill="#CCC9C6"/>
<path d="M264.041 0.952426C254.534 -2.53438 229.508 4.95973 213.344 6.53803C209.228 6.941 206.043 7.70216 203.512 8.6816C213.069 6.60519 213.73 8.67041 241.73 5.5418C241.87 5.51941 245.403 5.17801 246.304 5.12764C252.597 4.71907 258.801 5.14443 263.918 7.88686C270.351 11.3289 276.42 12.7841 282.249 13.4109C289.499 14.1833 296.375 13.6572 303.049 13.993C292.097 11.4688 273.246 4.3217 264.041 0.952426Z" fill="#F2EFEA"/>
<path d="M256.692 0.0447459C244.906 0.223843 226.29 5.27222 213.345 6.54269C209.225 6.94006 206.044 7.7012 203.508 8.68624C213.172 6.74975 214.146 8.66413 241.737 5.54111C241.866 5.51873 245.41 5.17725 246.295 5.12129C252.599 4.71832 258.791 5.14357 263.914 7.8804C270.347 11.3336 276.422 12.7777 282.245 13.399C286.618 13.8747 290.845 13.8747 294.988 13.8635C297.715 13.8635 300.396 13.8634 303.056 13.9865C292.088 11.468 273.242 4.33216 264.049 0.951698C262.414 0.358437 260.348 0.0839234 257.935 0.0447459H256.692Z" fill="url(#paint10_linear_5_1211)"/>
<path d="M282.243 13.4054L281.482 13.7916C271.046 19.422 261.404 16.8083 255.162 14.4184C256.181 14.9669 257.205 15.5378 258.202 16.1423C276.504 24.0449 291.084 14.9333 304.129 14.2337C303.788 14.1722 303.413 14.077 303.054 13.9875C296.38 13.6517 289.505 14.1834 282.243 13.4054Z" fill="#EBE7E3"/>
<path d="M302.604 332.781C290.751 280.501 264.962 246.461 242.248 218.573C222.965 194.92 212.479 169.41 207.652 146.329C208.128 151.624 208.565 157.176 208.923 162.828C213.319 194.892 225.278 232.979 260.461 276.074C292.43 315.224 299.199 320.563 302.604 332.781Z" fill="#FFFBF7"/>
<path d="M330.712 40.7376C330.712 40.7487 331.082 41.5939 331.082 41.5939C331.171 41.7953 333.299 46.8157 333.377 47.0116C339.318 60.9476 333.176 72.4266 332 74.4023C340.572 104.72 331.585 139.409 317.667 170.941C311.603 184.754 311.827 197.134 310.069 205.865C310.086 205.821 310.114 205.776 310.131 205.742C321.692 184.368 332.263 164.041 335.505 154.761C335.857 153.765 336.165 152.802 336.473 151.84C347.632 123.285 354.927 85.5063 335.824 50.3529C334.99 48.7634 332.224 43.5695 330.712 40.7376Z" fill="#EBE7E3"/>
<path d="M302.526 30.5544C310.969 37.0466 316.831 44.7031 321.859 52.3091C320.151 40.248 317.106 28.2765 307.011 29.3007C305.74 29.4406 304.559 29.6701 303.349 30.1738C303.31 30.185 303.204 30.0227 302.526 30.5544Z" fill="#DEDBD7"/>
<path d="M333.638 46.7547C333.56 46.5588 327.636 37.9678 324.266 34.5369C320.559 30.524 315.184 28.1342 310.481 28.2573C306.148 28.3692 304.446 29.5278 303.102 30.1882C302.889 30.2833 302.643 30.4792 302.531 30.5576C316.976 26.4104 319.731 40.3744 321.864 52.3012C326.505 59.3251 329.836 66.7353 332.003 74.4365C332.826 72.8918 338.968 60.4725 333.638 46.7547Z" fill="#CCC9C6"/>
<path d="M247.412 422.325C253.688 417.198 258.856 411.607 265.468 411.826C260.709 411.624 242.955 415.435 238.84 418.363C241.606 420.03 244.484 421.318 247.412 422.325Z" fill="#D2CFCB"/>
<path d="M308.089 368.25C307.905 363.369 307.356 358.539 306.455 353.871C304.657 344.569 301.393 335.911 296.371 328.826C277.856 302.722 233.479 254.595 221.968 217.102C225.31 240.603 219.611 268.862 229.028 282.742C232.23 286.866 235.327 290.935 238.283 294.92C260.869 321.863 287.155 337.489 286.327 375.71C285.884 395.959 279.07 403.185 269.11 412.52C269.496 412.649 269.894 412.8 270.308 412.979C279.921 417.166 293.017 419.97 298.224 411.311C304.948 398.164 308.778 385.991 308.089 368.25Z" fill="#EFECE8"/>
<path d="M288.055 378.95C294.029 329.793 265.638 303.46 238.589 272.476C235.46 268.995 226.423 265.033 229.967 273.193C245.235 297.186 255.42 320.463 257.838 330.146C272.099 387.295 256.433 405.372 238.847 418.368C242.957 415.435 260.716 411.624 265.464 411.831C266.629 411.865 267.838 412.083 269.109 412.52C277.21 404.919 282.86 400.923 286.051 388.823C286.505 387.144 286.908 385.274 287.316 383.209C287.579 381.877 287.871 380.467 288.055 378.95Z" fill="#E7E4E0"/>
<path d="M267.196 343.024C260.595 316.596 244.946 275.342 217.176 239.321C216.75 240.608 214.298 248.382 212.265 254.164C214.113 257.348 215.658 260.035 216.795 262.117C218.223 264.882 219.141 266.801 220.316 269.477C223.088 275.51 225.703 281.185 226.845 283.513C242.258 314.682 245.954 343.265 245.97 360.341C247.118 381.743 236.402 406.302 217.943 417.825C226.318 421.435 232.69 419.415 238.849 418.363C253.876 412.895 281.456 400.179 267.196 343.024Z" fill="#F2EFEA"/>
<path d="M173.386 39.7993C154.753 65.2591 150.145 106.541 157.592 128.453C167.104 156.465 171.359 170.317 194.858 207.793C197.019 211.235 182.68 153.946 179.545 140.01C176.678 127.261 167.978 75.1654 186.376 34.1017C188.083 30.2903 190.032 26.0928 192.226 22.5108C184.842 26.3838 178.571 32.7249 173.386 39.7993" fill="url(#paint11_linear_5_1211)"/>
<path d="M232.193 27.2281C223.649 31.3418 216.264 37.4535 210.049 44.3767C203.818 51.3223 198.986 59.3929 195.604 67.9952C188.863 85.2949 188.348 104.419 191.299 122.732C194.076 141.179 200.738 159.01 204.534 177.81C206.46 187.179 207.535 196.811 207.227 206.398C206.897 215.98 205.212 225.483 202.267 234.5C204.109 225.192 205.083 215.767 204.702 206.398C204.422 197.029 202.838 187.778 200.626 178.672C198.359 169.577 195.587 160.561 192.861 151.46C190.218 142.337 187.749 133.058 186.249 123.527C184.804 114.006 184.227 104.296 185.006 94.6247C185.47 89.8003 186.137 84.9871 187.324 80.2746C188.449 75.5565 189.955 70.9055 191.943 66.4785C195.817 57.5684 201.377 49.425 208.252 42.6641C215.161 35.9983 223.184 30.3231 232.193 27.2281Z" fill="#CCC9C6"/>
<path d="M212.827 253.418C214.725 248.365 215.94 243.115 216.516 237.787C216.981 232.447 217.099 227.086 216.701 221.729C216.136 211.012 214.495 200.355 212.888 189.699C211.338 179.031 209.546 168.386 208.107 157.691C206.59 147.007 206.086 136.283 205.061 125.537L214.814 189.408C216.421 200.081 217.916 210.81 218.28 221.662C218.493 227.086 218.174 232.526 217.524 237.91C216.606 243.271 215.156 248.538 212.827 253.418Z" fill="#CCC9C6"/>
<path d="M185.998 34.9615C183.915 41.756 182.034 48.6009 180.657 55.5409C179.179 62.4697 178.093 69.4657 177.41 76.4953C175.993 90.5489 175.993 104.742 177.454 118.779C178.826 132.833 182.107 146.629 185.612 160.363C187.342 167.247 189.218 174.098 190.791 181.049C192.263 187.995 193.669 195.064 193.456 202.199C193.131 195.086 191.507 188.163 189.654 181.323C187.818 174.478 185.769 167.684 183.809 160.856C179.845 147.211 176.615 133.252 175.013 119.037C174.28 111.923 173.961 104.776 174.05 97.6344C174.145 90.4929 174.515 83.3514 175.45 76.2771C176.379 69.1915 177.712 62.1787 179.425 55.2611C181.222 48.3714 183.361 41.5713 185.998 34.9615Z" fill="#CCC9C6"/>
<path d="M172.683 40.8105C169.559 46.7151 167.443 53.0731 165.718 59.4982C164.01 65.9289 162.818 72.4828 161.872 79.0534C160.091 92.2227 159.884 105.582 161.256 118.752C162.622 131.921 165.774 144.917 171.043 157.022C173.736 163.022 176.776 169.011 179.771 174.91C182.716 180.859 186.115 186.574 189.284 192.495C187.156 189.898 185.146 187.228 183.192 184.492C181.294 181.738 179.452 178.917 177.722 176.04C176.037 173.13 174.413 170.192 172.901 167.203C171.367 164.248 169.912 161.192 168.568 158.086C163.266 145.661 160.175 132.374 158.887 118.992C157.555 105.588 158.283 92.066 160.338 78.824C161.407 72.2085 162.885 65.6435 164.861 59.2464C166.843 52.8604 169.217 46.5248 172.683 40.8105Z" fill="#DEDBD7"/>
<path d="M187.131 39.9319C193.24 30.6524 201.677 23.0631 210.854 16.75C215.478 13.6158 220.473 10.9685 225.831 9.11033C227.762 8.4667 229.722 7.90702 231.76 7.5824C232.555 7.44808 233.395 7.38092 234.207 7.32495C235.662 7.25779 237.135 7.22981 238.602 7.47606C240.091 7.65516 241.513 8.13089 242.818 8.57863C253.495 12.3789 262.744 18.7592 272.1 24.5183C276.786 27.3895 281.567 30.1487 286.758 31.7998C289.333 32.6281 292.043 33.1374 294.753 32.9527C297.463 32.7848 300.145 31.9677 302.53 30.5573C300.284 32.1803 297.614 33.2549 294.814 33.5963C292.009 33.9713 289.16 33.6131 286.433 32.9303C280.968 31.4807 276.002 28.8055 271.154 26.1246C261.501 20.6901 252.347 14.3377 242.023 10.8901C240.707 10.4759 239.498 10.0618 238.238 9.88269C236.978 9.65322 235.662 9.66441 234.352 9.69799C231.732 9.84351 229.095 10.4424 226.542 11.2595C221.402 12.9217 216.57 15.541 211.901 18.3786C207.243 21.2498 202.831 24.5463 198.682 28.145C194.483 31.6934 190.564 35.5944 187.131 39.9319Z" fill="#CCC9C6"/>
<path d="M302.526 30.5543C304.732 28.7466 307.554 27.5489 310.533 27.3418C313.494 27.1291 316.523 27.8287 319.172 29.1775C323.88 31.5618 327.363 34.9478 330.106 39.6324C330.185 39.7667 330.476 40.2928 330.733 40.7853C330.901 41.0987 331.058 41.4065 331.148 41.5744C334.104 47.0425 336.002 52.3371 336.231 58.1466C336.528 63.9337 335.212 69.6984 332.01 74.4444C334.552 69.4913 335.442 63.7881 334.938 58.2361C334.384 52.6785 332.559 47.2832 329.731 42.4923C326.937 37.7182 323.096 33.4759 318.332 30.7838C315.947 29.463 313.293 28.6514 310.566 28.5675C307.828 28.4891 305.051 29.1887 302.526 30.5543Z" fill="#BBB8B5"/>
<path d="M219.071 238.186C221.708 250.449 225.784 262.348 231.523 273.413C234.328 278.982 237.514 284.343 241.019 289.492L246.383 297.199L249.059 301.094C249.943 302.393 250.738 303.77 251.584 305.091C254.982 310.402 257.883 316.004 260.648 321.68C263.257 327.422 265.491 333.338 267.233 339.41C268.896 345.488 270.133 351.69 270.687 357.964C271.292 364.232 271.387 366.874 271.157 373.125C271.006 366.862 270.726 364.243 269.853 358.059C269.03 351.863 267.742 345.746 265.923 339.791C264.069 333.836 261.667 328.071 259.092 322.407C256.315 316.833 253.409 311.309 249.994 306.081C249.148 304.772 248.342 303.434 247.469 302.147L244.787 298.307C243.023 295.755 241.176 293.181 239.44 290.561C235.952 285.306 232.777 279.832 230.006 274.174C224.497 262.818 220.768 250.617 219.071 238.186Z" fill="#CCC9C6"/>
<path d="M215.585 204.394C216.531 212.862 218.743 221.128 221.279 229.238C223.826 237.342 226.883 245.29 230.467 252.974C237.656 268.337 246.832 282.866 258.702 294.939C261.686 297.888 264.804 300.955 267.593 304.213C270.398 307.476 272.951 310.951 275.286 314.572C279.944 321.803 283.51 329.745 285.817 338.028C289.691 351.931 290.201 366.611 287.793 380.726C287.323 383.441 286.735 386.15 286.052 388.825C287.721 380.458 288.549 371.956 288.253 363.477C288.029 355.004 286.758 346.558 284.322 338.471C281.859 330.394 278.404 322.609 273.763 315.552C271.45 312.031 268.914 308.64 266.143 305.466C263.371 302.254 260.348 299.394 257.308 296.299C245.376 283.924 236.043 269.227 229.123 253.601C225.674 245.771 222.735 237.711 220.377 229.501C219.219 225.387 218.205 221.246 217.349 217.059C216.509 212.878 215.781 208.653 215.585 204.394Z" fill="#D2CFCB"/>
<path d="M317.199 182.288C321.639 173.669 325.283 164.731 328.475 155.664C331.672 146.603 334.32 137.351 336.453 127.988C338.553 118.63 340.036 109.127 340.63 99.5562C340.865 94.7765 340.876 89.9577 340.356 85.206L339.986 81.624L339.241 78.1037L338.883 76.3351C338.732 75.7474 338.486 75.1989 338.306 74.628L337.153 71.186C341.688 79.8387 342.78 89.9241 342.757 99.6121C342.757 104.498 342.41 109.373 341.783 114.22C341.195 119.055 340.367 123.863 339.303 128.626C337.248 138.152 334.37 147.487 330.782 156.537C327.165 165.559 322.73 174.313 317.199 182.288Z" fill="#FFFBF7"/>
<path d="M211.526 178.852C211.184 177.212 210.971 176.294 210.971 176.294C210.971 176.294 211.156 177.201 211.526 178.852ZM210.272 250.726C211.195 252.315 211.951 253.563 212.746 254.985C213.116 255.645 213.524 256.334 213.9 256.989C245.444 312.112 294.893 352.325 267.106 395.845C264.625 399.735 262.089 403.725 257.744 407.604C262.766 403.468 266.697 403.96 270.207 404.464C273.903 404.99 277.15 405.522 280.756 400.625C281.775 399.242 283.135 397.009 284.3 394.121C284.927 392.604 285.487 390.931 286.052 388.821C286.052 388.821 301.214 409.278 316.028 394.418C321.017 377.818 323.005 352.811 300.861 325.639C275.666 294.722 259.961 291.599 239.61 256.753C223.513 229.206 213.866 189.267 211.526 178.852C213.888 190.118 222.41 235.407 210.272 250.726" fill="url(#paint12_linear_5_1211)"/>
<path d="M180.799 52.4592C176.27 72.4062 173.425 101.627 177.966 131.463C179.942 144.51 189.606 172.992 191.795 186.721C186.236 142.892 165.38 59.0242 232.197 27.2176C216.285 31.1634 185.009 54.6084 180.799 52.4592" fill="url(#paint13_linear_5_1211)"/>
<path d="M256.692 0.0449257C244.906 0.224023 226.29 5.2724 213.345 6.54287C209.225 6.94024 206.044 7.70138 203.508 8.68642C196.084 11.5744 194.231 16.4717 191.163 20.4734C189.36 22.8296 188.106 23.5515 186.454 23.9321C186.415 23.9377 186.376 23.9378 186.348 23.9546C173.778 28.4601 144.087 65.0854 150.498 115.608C150.957 120.566 152.004 125.396 153.342 130.126C165.609 178.622 206.711 243.663 216.8 262.121C209.365 279.225 193.497 314.345 188.436 347.416C188.223 348.541 187.003 356.141 186.924 362.505C186.241 379.34 189.399 394.72 199.163 405.768C199.219 405.841 201.073 407.833 201.157 407.917C206.134 412.826 212.024 415.949 217.936 417.829H217.942C226.318 421.422 232.701 419.413 238.843 418.367C241.603 420.035 244.481 421.322 247.409 422.323C265.034 428.413 284.748 423.527 293.991 418.367C306.382 414.343 312.031 407.061 315.569 395.8C319.136 385.189 324.595 363.518 312.244 331.46C306.678 317.607 295.525 295.937 278.315 264.443L278.208 264.253C291.993 238.166 328.923 173.63 335.501 154.757C335.854 153.761 336.168 152.799 336.476 151.836C347.634 123.281 354.929 85.4969 335.82 50.3546C334.869 48.5133 331.341 41.9147 330.121 39.6256C329.897 39.2114 329.746 38.9374 329.707 38.8758C314.287 10.5672 313.767 15.9344 304.131 14.233C303.784 14.1826 303.414 14.0763 303.056 13.9867C292.088 11.4681 273.242 4.33234 264.049 0.951878C262.414 0.358617 260.348 0.0841033 257.935 0.0449257H256.692ZM268.729 248.688C268.158 247.715 267.609 246.797 267.055 245.857C245.824 207.709 222.964 174.475 210.54 143.206C207.791 134.754 205.641 126.432 204.303 118.468C199.617 95.6553 201.571 82.2454 210.294 63.7984C218.675 46.0285 244.021 23.8595 258.203 30.6429C273.796 38.109 282.374 39.872 288.034 39.1836C293.471 38.512 296.169 35.5512 299.781 32.5961C300.531 31.9413 302.367 30.6707 302.524 30.5475C310.995 37.0678 316.835 44.6795 321.874 52.2912C364.604 116.817 294.059 215.6 271.182 252.679C269.642 250.105 268.74 248.694 268.729 248.688ZM216.201 397.222C213.004 396.802 209.807 395.543 206.733 393.444C202.456 390.483 199.264 386.112 197.618 381.181C192.652 366.26 193.693 336.614 220.316 269.481C223.099 275.503 225.713 281.183 226.844 283.512C242.252 314.68 245.953 343.263 245.975 360.345C244.313 381.82 233.949 394.855 222.264 397.043C220.982 397.244 219.728 397.339 218.502 397.339C217.724 397.339 216.957 397.295 216.201 397.222" fill="url(#paint14_linear_5_1211)"/>
<path d="M257.285 0.0392616C245.539 0.0504552 226.503 5.24981 213.345 6.54267C209.225 6.94004 206.044 7.70118 203.508 8.68622C196.084 11.5742 194.231 16.4715 191.163 20.4732C189.36 22.8294 188.106 23.5513 186.454 23.9319C186.415 23.9375 186.376 23.9376 186.348 23.9544C173.778 28.4599 144.087 65.0852 150.498 115.607C150.957 120.566 152.004 125.396 153.342 130.126C165.609 178.622 206.711 243.662 216.8 262.121C209.365 279.225 193.497 314.344 188.436 347.416C188.223 348.541 187.003 356.141 186.924 362.516C186.241 379.34 189.399 394.72 199.163 405.768C199.219 405.841 201.073 407.833 201.157 407.917C206.134 412.826 212.024 415.949 217.936 417.829H217.942C226.318 421.422 232.701 419.413 238.843 418.366C241.603 420.034 244.481 421.321 247.409 422.323C253.394 424.388 259.614 425.189 265.588 425.155C277.206 425.072 287.894 421.769 293.991 418.366C306.382 414.342 312.031 407.061 315.569 395.8C319.136 385.189 324.595 363.518 312.244 331.459C306.678 317.607 295.525 295.936 278.315 264.443L278.208 264.253C291.993 238.166 328.923 173.629 335.501 154.757C335.854 153.761 336.168 152.798 336.476 151.836C347.634 123.281 354.929 85.4967 335.82 50.3544C334.869 48.5243 331.341 41.9145 330.121 39.6254C329.897 39.2112 329.746 38.9372 329.707 38.8756C314.287 10.567 313.767 15.9342 304.131 14.2328C303.784 14.1824 303.414 14.0761 303.056 13.9865C292.088 11.4679 273.242 4.33215 264.049 0.951679C262.302 0.313644 260.034 0.0392616 257.403 0.0392616H257.285ZM268.729 248.688C268.158 247.714 267.609 246.797 267.055 245.856C245.824 207.709 222.964 174.475 210.54 143.205C207.791 134.754 205.641 126.432 204.303 118.468C199.617 95.6552 201.571 82.2452 210.294 63.7982C218.675 46.0283 244.021 23.8593 258.203 30.6427C273.796 38.1088 282.374 39.8718 288.034 39.1834C293.471 38.5118 296.169 35.551 299.781 32.5959C300.531 31.9411 302.367 30.6705 302.524 30.5473C310.995 37.0676 316.835 44.6793 321.874 52.291C364.604 116.816 294.059 215.6 271.182 252.679C269.642 250.104 268.74 248.694 268.729 248.688ZM216.201 397.222C213.004 396.802 209.807 395.543 206.733 393.444C202.456 390.483 199.264 386.112 197.618 381.181C192.652 366.26 193.693 336.614 220.316 269.481C223.099 275.503 225.713 281.183 226.844 283.511C242.252 314.68 245.953 343.263 245.975 360.344C244.313 381.819 233.949 394.854 222.264 397.043C220.982 397.244 219.728 397.339 218.502 397.339C217.724 397.339 216.957 397.294 216.201 397.222" fill="url(#paint15_linear_5_1211)"/>
<path d="M253.725 366.509C254.122 346.864 250.405 327.488 244.246 309.063C238.054 290.605 229.387 273.07 219.359 256.386C214.376 248.002 209.175 239.613 204.298 231.111C199.421 222.587 194.634 214.024 190.088 205.315C180.996 187.926 172.446 170.184 166.03 151.614C169.999 160.591 174.238 169.384 178.846 178.031C183.353 186.712 188.056 195.286 192.86 203.815C202.445 220.886 212.54 237.592 222.741 254.366C232.808 271.296 241.441 289.211 247.124 308.151C249.985 317.598 252.112 327.275 253.299 337.064C254.447 346.847 254.66 356.754 253.725 366.509Z" fill="#E1DEDA"/>
<g opacity="0.429993">
<path d="M178.84 178.029C183.347 186.704 188.061 195.29 192.853 203.813C194.83 207.328 196.823 210.832 198.844 214.324C204.633 223.542 211.111 233.035 218.216 242.241C250.807 284.519 271.288 327.587 256.524 369.149C253.842 376.715 255.191 380.264 258.59 380.409H259.038C268.41 380.029 291.282 356.433 291.651 320.91V319.175C291.399 294.773 280.487 264.942 247.61 233.225C196.504 194.422 166.035 151.623 166.035 151.623C169.999 160.595 174.232 169.388 178.84 178.029" fill="url(#paint16_linear_5_1211)"/>
</g>
<path d="M220.316 269.477C219.141 266.802 218.222 264.882 216.795 262.118C209.365 279.227 193.498 314.347 188.431 347.418C188.229 348.538 187.003 356.155 186.925 362.524C187.037 363.66 187.205 364.729 187.423 365.709C191.891 384.984 198.845 388.264 201.739 388.756C199.931 386.518 198.542 383.949 197.624 381.178C192.652 366.268 193.688 336.611 220.316 269.477Z" fill="#F2EFEA"/>
<path d="M312.244 331.454C306.684 317.613 295.531 295.937 278.32 264.433L278.214 264.259C278.214 264.259 267.061 245.862 267.05 245.857C245.824 207.709 222.97 174.481 210.535 143.195C207.797 134.755 205.636 126.432 204.303 118.468C204.292 118.434 204.292 118.406 204.286 118.373C204.275 118.317 204.27 118.272 204.253 118.227C205.462 125.973 205.149 133.994 207.646 146.335C212.483 169.416 222.97 194.92 242.241 218.578C264.967 246.456 290.755 280.507 302.608 332.781C304.131 339.502 306.41 354.491 307.311 368.393C308.397 385.155 305.262 396.858 299.277 409.199C299.422 409.406 303.022 414.197 313.453 399.64C314.293 398.37 314.959 397.082 315.569 395.801C319.136 385.189 324.6 363.524 312.244 331.454Z" fill="#FFFBF7"/>
<path d="M165.055 78.4171C165.055 87.0698 172.07 94.0714 180.726 94.0714C189.388 94.0714 196.403 87.0698 196.403 78.4171C196.403 69.7645 189.388 62.7458 180.726 62.7458C172.07 62.7458 165.055 69.7645 165.055 78.4171ZM182.82 71.0068C181.236 70.3967 180.239 68.8856 180.228 67.2738C180.39 67.2626 180.553 67.229 180.726 67.229C183.296 67.229 185.637 68.119 187.523 69.5854C186.768 70.6432 185.536 71.2698 184.254 71.2698C183.772 71.2698 183.291 71.1859 182.82 71.0068M170.301 74.3931C171.259 71.9249 173.073 69.91 175.363 68.6508C175.715 69.2384 175.928 69.9377 175.928 70.6597C175.928 72.8984 174.12 74.7063 171.886 74.7063C171.32 74.7063 170.8 74.6057 170.301 74.3931ZM178.319 82.3852L176.303 78.5907C176.079 78.1597 176.158 77.6336 176.482 77.281L179.483 74.1915C179.819 73.8389 180.346 73.7382 180.777 73.9565L184.646 75.848C185.088 76.0606 185.334 76.5252 185.261 77.0121L184.662 81.2712C184.595 81.7581 184.22 82.139 183.75 82.2229L179.511 82.9615C179.45 82.9727 179.377 82.9727 179.315 82.9727C178.901 82.9727 178.52 82.7546 178.319 82.3852M188.307 79.2062C188.307 77.2921 189.645 75.7082 191.415 75.2717C191.717 76.2791 191.918 77.3146 191.918 78.4171C191.918 80.0402 191.56 81.5791 190.922 82.9727C189.399 82.4019 188.307 80.93 188.307 79.2062M169.881 81.0587C170.206 80.9748 170.548 80.9187 170.906 80.9187C173.129 80.9187 174.948 82.7211 174.948 84.9598C174.948 85.8889 174.635 86.7171 174.108 87.3999C172.026 85.8608 170.508 83.6445 169.881 81.0587ZM179.724 89.5042C179.976 87.5173 181.656 85.984 183.711 85.984C185.06 85.984 186.252 86.6613 186.991 87.6855C185.211 88.8944 183.055 89.5995 180.726 89.5995C180.379 89.5995 180.049 89.5377 179.724 89.5042" fill="url(#paint17_linear_5_1211)"/>
<path d="M182.585 50.0073L186.202 56.276L192.473 52.6601L188.856 46.3917L182.585 50.0073Z" fill="url(#paint18_linear_5_1211)"/>
<path d="M173.683 106.199L178.901 111.231L183.934 106.037L178.722 100.988L173.683 106.199Z" fill="url(#paint19_linear_5_1211)"/>
<path d="M278.846 369.378C278.287 370.111 277.984 371.337 277.85 372.909C277.715 374.504 277.771 375.932 277.889 377.292C277.301 376.648 276.137 376.435 275.515 376.911C275.677 377.544 275.89 378.12 275.974 378.797C276.041 379.267 276.041 379.788 276.047 380.291C274.955 381.092 273.695 382.178 273.522 384.204C273.494 384.528 273.505 384.825 273.505 385.133C273.096 383.846 272.385 382.53 272.033 381.411C271.713 380.414 271.142 379.458 270.582 378.954C270.42 378.792 270.207 378.741 270.011 378.624C269.888 378.954 269.793 379.307 269.67 379.609C269.619 379.76 269.597 379.916 269.536 380.218C269.16 379.832 268.858 379.48 268.483 379.206C268.203 379.004 267.867 378.914 267.526 378.847C266.809 378.685 266.686 378.859 266.686 379.905C266.686 380.247 266.669 380.61 266.658 381.058C265.096 380.459 264.228 381.724 264.261 381.758C264.592 382.066 264.883 382.256 264.956 382.732C265.028 383.179 264.849 383.885 264.625 384.495C264.177 385.704 264.474 387.758 265.342 388.558C265.963 389.134 267.117 389.028 267.929 388.239C268.869 387.366 269.16 384.668 268.634 383.829C268.315 383.325 268.091 383.319 267.47 383.744C267.632 384.097 267.957 384.439 267.912 384.836C267.867 385.284 267.553 385.905 267.234 386.258C266.798 386.728 266.305 386.773 265.952 386.386C265.336 385.698 265.325 384.506 265.896 383.386C266.059 383.079 266.462 382.502 266.669 382.345C267.553 381.702 268.6 381.517 269.244 381.976C269.961 382.485 270.398 383.308 270.487 384.528C270.655 386.655 269.552 389.968 269.653 392.084C269.726 394.043 271.126 394.815 272.755 395.134C273.471 395.274 275.325 395.487 275.705 395.627C277.643 396.321 279.322 396.214 280.353 394.429C281.411 392.599 281.987 389.145 283.118 387.327C283.773 386.291 284.529 385.765 285.403 385.62C286.198 385.513 287.038 386.129 287.53 387.114C287.653 387.349 287.732 388.037 287.743 388.395C287.721 389.649 287.155 390.707 286.299 391.026C285.789 391.211 285.369 390.965 285.207 390.338C285.089 389.884 285.1 389.19 285.274 388.759C285.414 388.395 285.851 388.25 286.159 388.004C285.806 387.338 285.604 387.232 285.089 387.539C284.233 388.054 283.337 390.533 283.773 391.731C284.115 392.8 285.1 393.416 285.912 393.186C287.071 392.862 288.174 391.239 288.353 389.935C288.432 389.308 288.611 388.603 288.868 388.228C289.154 387.83 289.495 387.797 289.949 387.685C289.983 387.674 290.011 387.595 290.072 387.5C289.82 386.129 288.88 386.353 288.141 385.983C288.331 385.564 288.482 385.25 288.65 384.931C289.137 384.002 289.104 383.789 288.387 383.627C288.057 383.537 287.721 383.448 287.368 383.509C286.92 383.571 286.478 383.767 285.968 383.935C286.047 383.638 286.097 383.487 286.125 383.342C286.17 383.006 286.242 382.642 286.287 382.301C286.198 382.312 286.119 382.312 286.041 382.301C285.895 382.301 285.755 382.29 285.604 382.334C284.888 382.536 284.406 382.983 283.493 383.521C282.642 384.024 281.545 385.295 280.655 386.571C280.761 386.129 280.884 385.698 281.047 385.3C281.623 383.829 281.517 382.922 280.946 382.217L280.297 381.164C280.364 381.008 280.436 380.829 280.504 380.622C280.806 379.637 281.271 378.87 281.635 377.896C281.472 377.275 280.364 376.698 279.63 376.956C280.045 375.624 280.33 374.174 280.341 372.484C280.33 370.939 279.966 369.988 279.552 369.254C279.49 369.148 279.401 369.103 279.311 369.103C279.154 369.103 278.981 369.221 278.846 369.378M250.382 387.674C250.13 386.795 249.872 385.905 249.598 384.948C248.433 385.177 247.739 386.067 247.235 387.019C246.743 387.965 246.485 389.017 246.104 389.985C245.634 389.582 245.164 389.157 244.682 388.732C243.182 390.506 242.935 392.364 244.296 394.535C245.41 396.304 246.726 397.927 247.985 399.533C249.419 401.375 250.874 403.132 250.975 405.539C251.082 407.789 249.872 409.753 247.957 411.359C246.44 412.641 244.755 413.116 242.639 413.128C242.571 413.128 242.392 413.755 242.359 413.872C242.549 414.751 244.128 414.354 244.923 414.152C250.897 412.641 254.755 408.107 252.963 403.518C252.274 401.694 249.945 398.795 249.055 397.026C248.31 395.576 247.644 394.11 247.963 392.397C248.361 390.377 250.331 388.407 252.834 388.821C254.256 389.051 255.382 390.226 255.37 391.653C255.359 392.571 254.575 393.785 253.668 394.183C253.08 394.429 252.47 394.513 252.017 394.088C251.602 393.673 251.602 393.158 251.877 392.599C251.921 392.509 251.933 392.409 251.955 392.302C251.037 392.375 249.883 393.629 250.012 394.608C250.253 396.321 254.105 397.686 255.874 396.522C257.498 395.47 258.371 393.007 257.789 391.026C257.224 389.112 256.361 388.11 254.542 387.523C254.346 387.444 254.178 387.366 254.032 387.287C254.396 386.369 254.693 385.575 255.001 384.702C254.889 384.696 254.771 384.696 254.654 384.696C252.649 384.696 251.524 385.955 250.382 387.674M264.077 394.72C262.912 395.218 261.512 396.612 261.249 397.574C261.82 397.423 262.352 397.233 262.845 397.149C263.914 397.015 264.636 397.541 264.827 398.537C264.984 399.382 264.368 400.865 263.511 401.587C262.123 402.768 260.656 403.809 259.217 404.901C257.543 406.137 256.792 407.604 256.916 409.272C257.067 411.499 258.942 413.089 259.273 413.408C256.367 417.096 252.918 420.174 249.413 422.973C250.376 423.252 251.345 423.521 252.308 423.734C255.466 421.047 258.545 418.193 261.524 414.93C264.054 416.044 267.15 416.29 269.58 414.421C271.142 413.212 271.865 411.745 272.492 410.206C272.968 409.042 273.332 407.861 273.735 406.675C274.295 405.063 275.465 403.764 276.691 403.283C277.816 402.847 278.488 403.401 278.589 404.867C278.594 405.063 278.606 405.242 278.628 405.567C279.401 404.587 279.686 403.596 279.899 402.673C280.274 400.91 279.86 399.83 279.121 399.125C278.242 398.302 276.764 398.24 275.258 399.382C274.67 399.802 273.919 400.652 273.376 401.481C272.66 402.578 272.077 403.686 271.529 404.805C269.748 407.162 268.304 408.695 267.318 409.613C268.41 407.979 269.244 406.244 269.972 404.492C270.605 402.981 271.126 401.447 271.629 399.903C271.697 399.712 271.725 399.511 271.803 399.158C271.534 399.416 271.383 399.511 271.266 399.662C269.172 402.197 266.809 404.498 264.463 406.748C264.228 406.966 264.049 407.212 263.83 407.453C263.931 406.244 264.816 404.677 265.739 403.317C266.087 402.964 266.411 402.612 266.719 402.231C267.682 401.095 268.517 399.724 269.043 398.397C269.715 396.657 269.138 395.543 268.13 394.865C267.542 394.462 266.887 394.238 266.143 394.238C265.532 394.238 264.838 394.395 264.077 394.72M240.158 399.018C239.139 398.957 237.096 398.878 237.073 398.957C242.795 401.85 244.481 405.83 245.41 410.699C246.642 410.1 247.857 406.428 247.644 404.497C247.358 401.817 245.869 399.863 243.422 398.005C243.355 398.375 243.31 398.587 243.243 398.867C241.911 398.257 241.076 396.964 239.38 396.69C239.654 397.53 239.901 398.257 240.158 399.018M291.724 406.031C291.629 405.981 291.483 405.925 291.326 405.841C290.223 405.219 286.086 404.29 283.964 406.568C282.502 408.186 280.756 412.249 283.432 414.001C284.087 414.415 284.563 414.818 285.604 414.309C286.472 413.866 287.049 413.061 287.452 412.137C287.53 411.969 287.541 411.785 287.603 411.521C287.435 411.65 287.345 411.701 287.262 411.796C286.399 412.736 285.895 412.982 285.475 412.697C285.056 412.439 284.725 410.889 285.201 410.033C286.472 407.755 288.868 406.988 290.055 407.716C290.996 408.298 291.209 409.552 290.453 411.415C289.568 413.592 288.085 415.339 286.299 416.077C284.669 416.749 283.068 417.006 281.467 417.219C280.47 417.337 279.485 417.102 278.449 416.878C277.144 416.581 275.784 416.29 274.317 416.698C270.359 417.829 265.739 421.467 263.114 425.116C263.64 425.144 264.161 425.155 264.687 425.155C265.448 424.26 266.355 423.381 267.419 422.575C270.465 420.225 273.483 419.016 276.327 419.144C278.572 419.262 280.565 419.687 282.648 419.777C283.925 419.839 285.173 419.917 286.5 419.682C288.364 419.346 290.173 417.924 291.746 415.339C291.242 415.232 290.778 415.137 290.257 415.008C292.44 413.049 294.182 410.76 294.753 407.727C293.851 408.354 293.017 408.874 292.144 409.383C292.72 408.169 293.286 407.016 293.639 405.891C294.014 404.699 293.969 403.736 293.543 403.082C292.944 404.078 292.39 404.996 291.724 406.031M248.293 414.505C247.045 415.523 247.078 417.219 248.109 418.557C248.456 419.01 248.853 419.402 249.122 419.715C250.203 418.825 251.132 417.913 252.179 417.113C254.497 415.327 255.169 413.256 254.833 411.113C254.755 410.587 254.603 410.077 254.463 409.411C252.369 411.281 250.253 412.887 248.293 414.505ZM238.036 415.171C236.922 415.126 235.864 415.07 234.795 414.941C234.783 415.031 235.982 416.184 236.687 416.716C236.177 417.146 235.702 417.538 235.22 417.924C240.326 417.723 244.122 420.085 247.924 422.452C247.437 419.391 243.098 415.266 237.835 414.516C237.896 414.729 237.958 414.93 238.036 415.171M258.416 421.719C257.604 422.654 256.473 423.527 255.51 424.372C257.324 424.685 259.11 424.887 260.896 424.999C261.104 424.904 261.311 424.792 261.501 424.646C262.492 423.935 263.304 422.978 264.127 422.077C264.726 421.411 265.18 420.65 265.756 419.939C266.294 419.262 266.904 418.613 267.498 417.907C263.819 418.014 260.74 419.038 258.416 421.719M277.503 421.585C274.345 421.853 270.868 423.297 267.526 425.105C272.8 424.909 277.839 424.064 282.29 422.889C281.282 422.01 280.011 421.551 278.348 421.551C278.079 421.551 277.794 421.568 277.503 421.585" fill="url(#paint20_linear_5_1211)"/>
<path d="M246.401 259.395C246.233 259.418 246.093 259.507 246.082 259.675V259.731C246.138 260.655 246.39 261.723 247.297 263.106C248.299 264.634 249.396 265.77 250.561 266.727C249.76 266.94 249.105 268.104 249.346 268.764C250.236 269.419 251.11 269.845 251.955 270.55C253.73 272.005 254.643 271.227 254.782 270.572C254.822 270.337 254.547 269.912 254.139 269.419C254.514 269.76 254.939 269.99 255.382 269.984C256.16 269.811 256.686 269.453 256.098 268.233C255.785 267.611 255.219 266.901 254.911 266.251C254.587 265.569 254.435 264.936 254.2 264.276C253.366 264.209 252.448 265.076 252.319 266.005C251.614 264.707 250.819 263.386 249.749 262.037C248.708 260.699 247.7 259.77 246.776 259.44C246.709 259.418 246.636 259.401 246.569 259.395H246.401ZM261.339 265.166C261.552 266.666 263.119 269.162 264.687 271.093C264.009 269.497 264.284 268.591 264.9 267.802C265.135 267.511 265.073 266.408 264.217 265.361C263.886 264.953 263.125 264.186 262.627 264.046C262.464 263.996 262.307 263.974 262.179 263.974C261.501 263.974 261.255 264.567 261.339 265.166M271.909 266.576C271.545 266.867 270.896 267.399 270.532 269.408C270.23 269.011 269.384 268.261 268.981 267.908C268.83 268.166 268.623 268.356 268.539 268.658C268.259 269.576 268.41 270.678 269.054 271.876C270.151 273.953 271.355 275.995 272.57 278.027C274.81 281.777 276.96 285.376 275.739 288.667C275.997 288.65 276.081 288.655 276.125 288.65C276.209 288.622 276.254 288.515 276.321 288.476C277.995 287.307 279.238 285.331 278.018 282.958C276.764 280.506 273.399 277.428 272.229 274.915C271.546 273.477 271.512 272.268 271.988 271.233C272.424 270.304 273.701 269.833 275.112 269.99C275.448 270.035 276.271 270.443 276.646 270.679C278.018 271.608 278.779 272.968 278.51 274.12C278.359 274.787 277.783 275.072 276.993 274.798C276.411 274.596 275.655 274.092 275.314 273.617C275.011 273.202 275.162 272.621 275.118 272.111C274.143 272.016 273.886 272.162 273.858 272.934C273.796 274.227 275.364 276.091 276.982 276.477C278.393 276.863 279.781 276.236 280.106 275.195C280.576 273.723 280.073 272.229 278.785 271.121C278.147 270.594 277.497 269.9 277.284 269.341C277.066 268.776 277.268 268.367 277.441 267.791C277.464 267.74 277.396 267.662 277.346 267.533C275.666 266.828 275.235 267.998 274.306 268.535C274.003 268.026 273.763 267.634 273.522 267.225C273.124 266.52 272.889 266.212 272.592 266.212C272.408 266.212 272.195 266.341 271.909 266.576M258.786 268.686C258.506 268.949 258.327 269.498 258.618 270.024C259.183 271.093 260.331 272.156 261.596 272.766C264.009 273.93 266.199 275.682 267.822 277.921C268.102 278.318 268.371 278.721 268.634 279.13C267.24 277.747 265.616 276.482 264.144 275.195C262.559 273.835 261.031 273.203 259.737 273.264C259.357 273.286 259.088 273.634 259.105 274.014C259.166 275.346 260.068 276.712 261.417 278.346C262.559 279.729 263.701 281.318 264.944 282.818C264.681 282.594 264.407 282.387 264.144 282.163C262.235 280.624 260.577 278.766 259.245 276.622C258.579 275.548 255.645 271.949 254.374 273.751C253.915 274.4 254.62 275.699 255.981 276.745C257.19 277.663 258.427 278.436 259.648 279.32C259.67 280.798 260.236 281.749 261.999 283.03C263.018 283.752 264.037 284.307 265.051 285.012C265.353 285.224 265.79 285.622 265.896 285.907C266.411 287.351 267.363 288.112 268.399 288.571C269.58 289.092 270.644 289.114 271.406 289.092C272.1 289.064 272.816 288.689 273.298 288.04C274.009 287.094 274.446 284.609 273.382 282.633C273.029 281.984 272.369 281.234 271.758 280.719C271.266 280.283 270.969 280.003 270.683 279.393C270.112 278.145 269.384 276.902 268.539 275.705C267.33 274.025 266.271 273.482 265.107 273.611C264.088 272.346 263.164 271.171 262.089 270.091C261.115 269.122 259.967 268.529 259.267 268.529C259.066 268.529 258.898 268.58 258.786 268.686M250.555 279.359C250.561 281.06 253.103 281.301 253.73 281.06C254.503 280.764 254.995 280.171 255.757 279.896C256.277 279.728 257.072 279.93 258.019 279.986C256.361 278.945 253.853 277.713 252.213 277.713C251.227 277.713 250.55 278.156 250.555 279.359M254.189 282.443C253.892 282.51 253.685 282.7 253.422 282.829C253.786 283.26 254.34 284.111 254.816 284.474C254.127 284.626 253.517 284.682 252.974 284.894C252.537 285.051 252.224 285.359 251.893 285.667C251.205 286.321 251.311 286.585 252.437 287.323C252.834 287.581 253.198 287.844 253.702 288.185C251.938 289.439 252.705 291.28 252.761 291.269C253.332 291.118 253.747 290.944 254.312 291.202C254.85 291.459 255.505 292.154 255.992 292.814C257.022 294.18 258.478 294.773 259.978 294.403C261.048 294.146 261.742 292.808 261.451 291.364C261.16 289.736 259.413 288.04 258.125 288.023C257.347 288.006 257.179 288.252 257.207 289.221C257.722 289.31 258.299 289.187 258.696 289.512C259.155 289.887 259.614 290.67 259.777 291.269C259.995 292.081 259.682 292.624 259.004 292.73C257.834 292.926 256.518 292.081 255.69 290.659C255.466 290.262 255.124 289.428 255.102 289.081C255.029 287.659 255.572 286.417 256.535 286.047C257.604 285.639 258.802 285.756 260.191 286.518C262.627 287.866 265.482 291.409 267.856 292.814C270.146 294.18 272.201 293.077 273.472 291.482C273.516 291.42 273.623 291.375 273.656 291.297C273.662 291.258 273.656 291.163 273.695 290.905C270.336 291.918 266.882 289.54 263.276 287.072C261.339 285.728 259.368 284.391 257.375 283.159C256.507 282.628 255.678 282.353 254.922 282.353C254.671 282.353 254.424 282.387 254.189 282.443ZM282.385 284.183C280.588 285.112 279.793 287.631 281.45 290.861C281.859 291.633 282.351 292.45 282.917 293.161C285.112 295.937 287.575 298.187 290.011 300.487C291.489 301.909 292.877 303.448 294.282 305.004C297.899 309.028 297.233 313.802 297.334 314.026C298.946 311.401 300.357 308.697 299.03 304.511C298.185 301.897 296.41 300.118 294.579 298.528C293.191 297.308 291.735 296.273 290.29 295.148C288.325 293.62 287.071 291.387 286.993 289.478C286.92 287.738 288.001 287.077 290.078 287.653C290.346 287.726 290.503 287.765 290.974 287.9C290.212 286.489 288.846 285.532 287.653 284.805C286.371 284.027 285.274 283.719 284.317 283.719C283.594 283.719 282.956 283.898 282.385 284.183M279.401 295.181C281.915 299.256 283.981 303.588 285.985 307.88C286.998 310.007 288.448 311.966 289.775 313.835C290.268 314.518 291.298 314.708 292.077 314.86C292.62 314.966 293 315.123 293.347 315.777C297.832 323.994 301.354 332.579 304.176 340.857C304.26 341.137 304.327 341.562 304.22 341.803C302.983 344.282 303.733 346.056 305.021 347.668C306.04 348.955 307.916 351.563 308.649 351.502C308.8 349.951 308.974 348.423 308.946 346.901C308.94 345.53 308.884 344.086 308.487 342.804C308.252 342.026 307.395 341.573 306.818 340.958C306.404 340.521 305.799 340.185 305.609 339.642C302.625 331.555 299.053 323.126 294.546 315.123C294.098 314.294 293.991 313.723 294.271 312.918C294.742 311.513 294.299 309.951 293.471 308.485C291.337 304.763 288.465 301.886 285.475 299.245C283.678 297.661 281.808 296.228 279.91 294.795C279.675 294.61 279.417 294.487 278.97 294.207C279.188 294.689 279.261 294.957 279.401 295.181M271.277 297.179C269.726 298.327 268.97 300.039 269.16 302.659C269.306 304.483 270.56 307.069 271.769 307.886C271.837 307.041 271.82 306.218 271.943 305.513C272.262 303.991 273.332 303.235 274.787 303.448C276.041 303.649 277.794 305.199 278.382 306.716C279.367 309.168 280.134 311.675 280.94 314.165C281.87 317.042 283.533 318.817 285.907 319.404C287.838 319.886 289.708 319.516 291.595 318.671C290.794 318.184 290.173 317.787 289.523 317.417C287.474 316.225 286.119 314.143 285.078 311.681C283.779 308.614 282.564 305.474 280.812 302.631C279.686 300.761 278.191 298.97 276.596 297.621C275.521 296.72 274.518 296.351 273.6 296.351C272.744 296.351 271.96 296.676 271.277 297.179M255.505 316.897C254.234 316.684 252.94 316.483 251.541 316.259C251.154 317.854 251.871 319.276 252.789 320.496C253.702 321.682 254.894 322.622 255.913 323.68C255.107 324.044 254.279 324.385 253.467 324.732C254.833 327.682 257.072 329.126 260.656 328.711C263.578 328.364 266.428 327.66 269.256 327.022C272.475 326.311 275.582 325.522 278.723 326.837C281.679 328.057 283.46 330.755 284.378 334.135C285.1 336.827 284.703 339.25 283.46 341.926C283.421 342.004 284.02 342.581 284.255 342.726C284.619 341.64 285.739 339.961 285.968 338.836C287.614 330.385 281.943 324.475 274.989 323.994C272.251 323.77 269.474 324.1 266.674 324.173C264.379 324.245 262.095 324.206 260.118 322.785C257.767 321.061 256.417 317.395 258.439 314.479C259.598 312.817 261.77 312.112 263.573 312.962C264.76 313.528 265.846 315.246 265.801 316.634C265.779 317.541 265.521 318.358 264.698 318.671C263.914 318.957 263.265 318.654 262.705 317.954C262.615 317.854 262.492 317.781 262.386 317.691C261.915 318.889 262.839 321.083 264.177 321.508C266.495 322.242 268.83 319.259 268.399 316.332C268.024 313.651 266.775 311.401 264.418 310.349C261.831 309.201 259.637 309.61 257.8 311.535C257.582 311.748 257.38 311.904 257.196 312.061C256.227 311.048 255.387 310.192 254.463 309.274C252.94 311.994 253.898 314.294 255.505 316.897M268.645 321.307C271.282 321.223 274.026 317.843 272.783 314.837C271.887 312.593 269.183 310.746 267.083 309.459C270.336 313.181 271.652 317.221 268.645 321.307ZM302.328 325.992C303.257 327.553 303.873 329.361 304.573 331.062C307.104 329.523 308.896 326.467 307.854 323.16C307.322 321.47 306.404 319.908 305.547 318.369C304.892 317.216 304.069 316.22 303.364 315.106C302.67 314.037 302.065 312.901 301.365 311.753C299.758 316.841 299.719 321.531 302.328 325.992M292.58 332.361C293.403 334.56 295.766 335.333 298.112 334.56C298.896 334.292 299.641 333.939 300.195 333.721C299.473 331.812 298.65 330.122 298.039 328.303C296.679 324.273 294.131 322.365 290.996 321.8C290.229 321.671 289.434 321.626 288.46 321.503C290.067 325.258 291.27 328.902 292.58 332.361M264.732 332.014C265.213 332.294 265.482 332.439 265.84 332.663C264.379 334.208 262.184 334.723 260.986 336.911C262.291 336.933 263.422 336.945 264.58 336.956C264.026 338.316 262.951 341.086 263.041 341.159C269.759 334.689 276.064 334.275 283.242 335.344C283.001 333.368 278.488 329.943 275.717 329.316C274.832 329.115 273.97 329.014 273.124 329.014C270.28 329.014 267.604 330.116 264.732 332.014ZM307.238 334.09C309.035 333.385 310.822 332.73 312.585 332.361C312.468 332.059 312.361 331.751 312.244 331.454C311.941 330.699 311.611 329.909 311.281 329.103C309.523 330.525 308.039 332.344 307.238 334.09ZM307.591 338.54C307.49 338.573 307.417 338.719 307.238 338.988C309.937 339.469 310.939 341.842 311.443 344.59C313.005 344.209 313.711 342.866 314.394 341.651C314.981 342.189 315.53 342.827 316.157 343.286C315.614 341.31 315.004 339.284 314.315 337.213C313.957 337.174 313.593 337.146 313.24 337.146C311.337 337.146 309.461 337.728 307.591 338.54M284.126 348.004C284.451 348.015 284.776 348.021 285.14 348.026C284.546 349.521 283.958 350.959 283.281 352.353C283.387 352.42 285.571 351.328 286.64 350.612C286.993 351.53 287.301 352.358 287.609 353.197C289.764 346.106 294.82 342.054 299.898 337.974C299.523 337.907 299.125 337.879 298.711 337.879C294.154 337.879 287.373 341.741 284.126 348.004M300.626 343.202C298.868 344.713 297.233 346.381 296.348 348.664C295.481 350.858 295.755 352.616 297.16 354.11C298.924 352.504 300.24 350.886 299.725 348.849C300.956 348.782 302.132 348.698 303.621 348.591C302.518 346.168 301.835 344.025 303.341 341.439C303.257 341.372 303.185 341.299 303.095 341.243C302.306 341.909 301.438 342.519 300.626 343.202M311.023 346.325C311.93 347.87 312.574 349.229 313.487 350.354C314.119 351.188 315.161 351.737 316.448 351.189C316.896 351.009 317.501 350.539 317.809 350.075C317.686 349.476 317.551 348.877 317.411 348.261C316.504 348.368 315.805 347.836 315.228 347.416C314.265 346.728 313.235 346.286 311.807 346.286C311.561 346.286 311.297 346.297 311.023 346.325M301.718 353.64C301.354 354.838 300.85 355.823 299.249 356.164C299.887 357.093 300.861 357.267 301.987 357.138C303.045 357.009 303.784 356.259 304.243 355.436C304.943 354.188 305.021 352.688 304.853 351.396C304.764 350.685 304.624 349.845 304.394 349.381C302.938 350.713 302.199 352.14 301.718 353.64M312.748 355.677C313.996 356.388 315.821 355.565 316.824 353.511C315.161 353.97 314.562 352.924 313.711 352.062C312.96 351.312 311.997 350.819 311.034 350.142C310.536 352.229 311.393 354.927 312.748 355.677M305.76 355.341C305.799 356.472 305.816 357.49 304.657 358.537C305.76 358.862 306.723 358.587 307.675 357.832C308.532 357.171 308.789 356.354 308.744 355.431C308.66 353.825 307.485 351.905 305.973 351.194C305.939 352.711 305.699 354.088 305.76 355.341M310.889 360.071C311.034 360.294 311.219 360.417 311.449 360.44H311.617C311.813 360.423 312.042 360.35 312.311 360.216C313.078 359.83 313.335 359.393 313.218 358.8C312.904 357.127 311.678 356.086 310.329 355.084C310.071 356.987 309.999 358.699 310.889 360.071" fill="url(#paint21_linear_5_1211)"/>
<path d="M197.815 245.802L200.099 244.498L193.879 233.657L191.594 234.961L193.985 239.142L182.686 245.629L184.109 248.114L195.413 241.622L197.815 245.802ZM208.01 258.267L196.824 260.041L203.957 251.209L201.739 247.364L188.162 255.16L189.579 257.64L199.97 251.679L200.009 251.746L191.813 261.524L192.977 263.55L205.552 261.418L205.591 261.468L195.211 267.434L196.633 269.913L210.216 262.123L208.01 258.267Z" fill="#BCBAB7"/>
<path d="M217.15 578.562C214.039 578.562 212.709 574.414 212.709 563.001C212.709 557.077 215.593 555.597 223.817 555.597C225.977 555.597 227.702 555.613 229.357 555.641C226.733 563.713 223.215 578.562 217.15 578.562ZM200.474 570.779C200.474 573.8 200.762 576.378 201.287 578.562H157.793C152.009 578.562 148.312 577.224 148.312 571.889V557.077H162.011C163.13 553.747 163.866 550.701 164.236 547.452H148.316C148.381 542.882 148.714 538.8 149.048 534.116C143.862 535.966 139.79 538.113 136.451 541.821V547.452H129.41C128.82 551.453 128.82 554.483 128.674 557.077H136.451V572.633C136.451 583.522 143.048 588.19 152.086 588.19H211.22C218.464 588.19 224.029 582.254 229.377 568.819V588.19H241.23V547.452C235.898 547.005 231.004 546.704 225.672 546.704C211 546.704 200.474 552.783 200.474 570.779ZM262.723 566.262V562.265C262.723 557.077 262.349 552.633 261.613 547.452H250.126C250.496 552.633 250.866 557.077 250.866 562.265V588.19H262.723C262.723 573.666 267.388 557.15 279.762 558.931C279.762 556.337 279.392 550.408 278.655 546.704C269.621 547.489 265.196 555.446 262.723 566.262ZM99.3996 578.562C96.288 578.562 94.9538 574.414 94.9538 563.001C94.9538 557.077 97.8458 555.597 106.066 555.597C108.226 555.597 109.951 555.613 111.614 555.641C108.983 563.713 105.472 578.562 99.3996 578.562ZM82.7309 570.779C82.7309 583.079 87.1726 588.93 93.1031 588.93C100.368 588.93 106.168 582.502 111.631 568.799V588.19H123.488V547.452C118.151 547.005 113.262 546.704 107.921 546.704C93.2495 546.704 82.7309 552.783 82.7309 570.779M469.093 551.893C469.093 541.748 462.052 535.596 449.455 535.596C442.491 535.596 437.382 537.076 434.267 538.564C432.489 541.077 431.676 543.972 430.561 548.554C435.304 546.704 439.896 545.228 446.864 545.228C452.42 545.228 456.87 547.599 456.87 554.117C456.87 561.147 452.497 566.262 428.706 580.038C428.706 581.522 428.784 584.482 429.451 588.19H468.719C469.837 584.856 470.573 581.896 470.944 578.562H437.521C454.218 572.853 469.093 566.892 469.093 551.893M54.8074 576.813L54.1972 576.484C47.0872 572.711 37.5244 566.937 37.5244 556.414C37.5244 546.778 43.7559 542.26 51.2361 542.26C59.5379 542.26 64.5735 548.111 64.5735 558.341C64.5735 565.384 60.6931 571.597 54.8074 576.813M77.5407 588.93L58.0207 578.525C69.0681 574.512 77.1706 566.595 77.1706 555.373C77.1706 540.26 65.8303 532.636 51.2361 532.636C37.8254 532.636 24.9314 541.227 24.9314 557.821C24.9314 571.82 35.6005 580.188 47.3068 586.336L84.9477 605.967C84.9477 597.302 83.9146 592.333 77.5407 588.93M354.974 584.482C351.647 584.482 341.267 577.74 341.267 559.675C341.267 550.778 346.457 545.228 354.974 545.228C363.496 545.228 368.69 550.778 368.69 559.675C368.69 577.74 358.314 584.482 354.974 584.482M354.974 535.596C340.16 535.596 329.04 544.484 329.04 558.931C329.04 577.818 347.197 588.93 354.974 588.93C362.76 588.93 380.909 577.818 380.909 558.931C380.909 544.484 369.801 535.596 354.974 535.596ZM355.141 555.792C352.55 557.638 350.325 559.797 348.365 562.265C350.325 564.733 352.55 566.884 355.141 568.738C357.732 566.884 359.949 564.733 361.926 562.265C359.949 559.797 357.732 557.638 355.141 555.792ZM423.154 551.893C423.154 541.748 416.109 535.596 403.508 535.596C396.549 535.596 391.436 537.076 388.32 538.564C386.547 541.077 385.729 543.972 384.614 548.554C389.361 546.704 393.958 545.228 400.921 545.228C406.477 545.228 410.927 547.599 410.927 554.117C410.927 561.147 406.555 566.262 382.768 580.038C382.768 581.522 382.841 584.482 383.508 588.19H422.784C423.89 584.856 424.635 581.896 425.005 578.562H391.578C408.279 572.853 423.154 566.892 423.154 551.893M323.109 551.893C323.109 541.748 316.077 535.596 303.48 535.596C296.512 535.596 291.399 537.076 288.291 538.564C286.51 541.077 285.692 543.972 284.586 548.554C289.325 546.704 293.921 545.228 300.889 545.228C306.441 545.228 310.887 547.599 310.887 554.117C310.887 561.147 306.514 566.262 282.731 580.038C282.731 581.522 282.804 584.482 283.475 588.19H322.747C323.862 584.856 324.598 581.896 324.964 578.562H291.541C308.234 572.853 323.109 566.892 323.109 551.893Z" fill="white"/>
<path d="M424.243 518.146C422.563 518.569 420.716 518.967 418.711 519.346C416.689 519.724 414.196 519.907 411.215 519.907C408.278 519.907 405.304 519.512 402.303 518.715C399.301 517.922 396.596 516.642 394.188 514.877C391.776 513.116 389.799 510.795 388.27 507.924C386.728 505.053 385.967 501.532 385.967 497.381C385.967 493.567 386.602 490.217 387.859 487.346C389.116 484.471 390.873 482.085 393.114 480.165C395.359 478.258 398.028 476.835 401.111 475.892C404.194 474.945 407.542 474.477 411.149 474.477C413.419 474.477 415.62 474.692 417.759 475.136C419.903 475.571 422.042 476.107 424.178 476.738L423.242 486.244C421.351 485.191 419.472 484.414 417.609 483.914C415.734 483.41 413.793 483.158 411.784 483.158C409.681 483.158 407.798 483.512 406.118 484.231C404.438 484.939 403.002 485.927 401.802 487.183C400.602 488.448 399.679 489.948 399.028 491.688C398.377 493.425 398.06 495.323 398.06 497.381C398.06 499.52 398.422 501.451 399.162 503.175C399.891 504.891 400.899 506.346 402.181 507.546C403.462 508.737 405.003 509.652 406.805 510.282C408.611 510.909 410.58 511.226 412.728 511.226C414.656 511.226 416.567 511.006 418.455 510.563C420.346 510.128 422.083 509.591 423.677 508.961L424.243 518.146Z" fill="white"/>
<path d="M466.424 502.476C466.424 505.501 465.961 508.096 465.037 510.283C464.114 512.463 462.808 514.268 461.108 515.691C459.404 517.122 457.37 518.179 454.999 518.871C452.627 519.57 450.012 519.907 447.156 519.907C444.305 519.907 441.694 519.57 439.318 518.871C436.951 518.179 434.917 517.122 433.213 515.691C431.513 514.268 430.207 512.463 429.284 510.283C428.36 508.096 427.897 505.501 427.897 502.476V475.226H439.607V500.529C439.607 501.997 439.721 503.367 439.953 504.648C440.181 505.932 440.587 507.059 441.149 508.047C441.714 509.031 442.483 509.807 443.447 510.373C444.407 510.942 445.651 511.226 447.156 511.226C448.67 511.226 449.91 510.942 450.878 510.373C451.846 509.807 452.607 509.031 453.176 508.047C453.738 507.059 454.14 505.932 454.372 504.648C454.596 503.367 454.718 501.997 454.718 500.529V475.226H466.424V502.476Z" fill="white"/>
<path d="M483.993 495.492H487.011C488.02 495.492 488.964 495.394 489.846 495.211C490.725 495.016 491.494 494.683 492.14 494.203C492.791 493.723 493.308 493.089 493.686 492.312C494.06 491.54 494.251 490.584 494.251 489.454C494.251 488.315 494.06 487.372 493.686 486.624C493.308 485.868 492.791 485.258 492.14 484.794C491.494 484.335 490.725 484.005 489.846 483.822C488.964 483.627 488.02 483.534 487.011 483.534H483.993V495.492ZM472.279 475.227H486.255C493.015 475.227 497.989 476.394 501.182 478.72C504.367 481.053 505.966 484.688 505.966 489.641C505.966 494.089 504.432 497.562 501.37 500.054C498.299 502.555 494.019 503.799 488.52 503.799H483.993V519.152H472.279V475.227Z" fill="white"/>
<path d="M141.77 475.226H153.732L159.402 508.962H159.529L165.439 475.226H180.297L186.468 508.962H186.598L192.325 475.226H203.722L193.895 519.156H178.853L172.622 485.424H172.492L166.704 519.156H151.528L141.77 475.226Z" fill="white"/>
<path d="M216.249 497.191C216.249 499.001 216.436 500.749 216.818 502.449C217.192 504.144 217.774 505.644 218.575 506.946C219.372 508.247 220.402 509.284 221.667 510.06C222.923 510.837 224.428 511.227 226.198 511.227C227.955 511.227 229.476 510.837 230.733 510.06C231.99 509.284 233.015 508.247 233.808 506.946C234.609 505.644 235.199 504.144 235.578 502.449C235.952 500.749 236.143 499.001 236.143 497.191C236.143 495.309 235.952 493.511 235.578 491.816C235.199 490.116 234.609 488.624 233.808 487.339C233.015 486.067 231.99 485.046 230.733 484.29C229.476 483.533 227.955 483.163 226.198 483.163C224.428 483.163 222.923 483.533 221.667 484.29C220.402 485.046 219.372 486.067 218.575 487.339C217.774 488.624 217.192 490.116 216.818 491.816C216.436 493.511 216.249 495.309 216.249 497.191ZM204.156 497.191C204.156 493.666 204.632 490.498 205.575 487.689C206.515 484.879 207.914 482.497 209.761 480.549C211.608 478.597 213.91 477.093 216.651 476.048C219.401 474.999 222.582 474.47 226.198 474.47C229.802 474.47 232.982 474.999 235.732 476.048C238.482 477.093 240.78 478.597 242.627 480.549C244.473 482.497 245.868 484.879 246.816 487.689C247.76 490.498 248.228 493.666 248.228 497.191C248.228 500.672 247.76 503.819 246.816 506.632C245.868 509.446 244.457 511.837 242.594 513.805C240.727 515.777 238.421 517.29 235.667 518.334C232.925 519.388 229.757 519.912 226.198 519.912C222.582 519.912 219.417 519.388 216.684 518.334C213.967 517.29 211.665 515.777 209.793 513.805C207.926 511.837 206.515 509.446 205.575 506.632C204.632 503.819 204.156 500.672 204.156 497.191Z" fill="white"/>
<path d="M264.347 493.48H267.426C268.354 493.48 269.33 493.447 270.355 493.382C271.388 493.321 272.311 493.122 273.129 492.788C273.946 492.447 274.63 491.947 275.171 491.276C275.72 490.601 275.988 489.641 275.988 488.377C275.988 487.373 275.752 486.547 275.264 485.897C274.784 485.246 274.158 484.75 273.381 484.417C272.604 484.083 271.701 483.855 270.668 483.725C269.643 483.595 268.565 483.534 267.426 483.534H264.347V493.48ZM252.641 475.227H273.54C275.464 475.227 277.298 475.451 279.015 475.886C280.735 476.329 282.248 477.016 283.55 477.939C284.843 478.862 285.864 480.009 286.601 481.391C287.337 482.782 287.703 484.417 287.703 486.303C287.703 489.239 287.011 491.654 285.62 493.545C284.241 495.427 282.118 496.708 279.267 497.383V497.505C280.19 497.753 280.934 498.152 281.504 498.705C282.069 499.249 282.561 499.928 282.98 500.746C283.403 501.567 283.786 502.51 284.144 503.58C284.506 504.649 284.953 505.857 285.506 507.203L289.781 519.153H277.575L275.049 511.228C274.459 509.337 273.902 507.784 273.381 506.568C272.856 505.357 272.283 504.389 271.681 503.677C271.071 502.958 270.379 502.47 269.598 502.197C268.821 501.921 267.894 501.787 266.804 501.787H264.347V519.153H252.641V475.227Z" fill="white"/>
<path d="M294.82 475.226H306.526V510.471H324.659V519.156H294.82V475.226Z" fill="white"/>
<path d="M340.463 510.469H344.994C349.399 510.469 352.779 509.359 355.126 507.131C357.477 504.911 358.657 501.601 358.657 497.189C358.657 492.786 357.453 489.472 355.061 487.248C352.669 485.024 349.318 483.91 344.994 483.91H340.463V510.469ZM328.748 475.225H344.738C348.561 475.225 352.067 475.566 355.252 476.233C358.445 476.904 361.179 478.071 363.473 479.73C365.755 481.385 367.544 483.621 368.821 486.431C370.103 489.236 370.745 492.766 370.745 497.002C370.745 501.117 370.091 504.577 368.789 507.387C367.487 510.201 365.685 512.474 363.375 514.214C361.069 515.954 358.319 517.211 355.126 517.987C351.937 518.764 348.476 519.154 344.738 519.154H328.748V475.225Z" fill="white"/>
<path fill-rule="evenodd" clip-rule="evenodd" d="M0.0340576 475.226V519.156H13.7091V503.29H23.5566L27.0587 493.69H13.7091V484.794H30.2883L33.7782 475.226H0.0340576Z" fill="white"/>
<path fill-rule="evenodd" clip-rule="evenodd" d="M37.9654 519.152H51.6404V475.222H37.9654V519.152Z" fill="white"/>
<path fill-rule="evenodd" clip-rule="evenodd" d="M61.0518 475.226V519.156H74.7349V503.29H84.5743L88.0764 493.69H74.7349V484.794H91.306L94.8 475.226H61.0518Z" fill="white"/>
<path fill-rule="evenodd" clip-rule="evenodd" d="M116.1 504.811L110.629 486.514L105.349 504.811H116.1ZM133.96 519.156H120.147L118.361 513.252H102.905L101.192 519.156H87.7287L103.738 475.227H117.959L133.96 519.156Z" fill="white"/>
<defs>
<linearGradient id="paint0_linear_5_1211" x1="215.289" y1="236.23" x2="256.53" y2="135.854" gradientUnits="userSpaceOnUse">
<stop stop-color="#858380"/>
<stop offset="1" stop-color="#A19F9C"/>
</linearGradient>
<linearGradient id="paint1_linear_5_1211" x1="237.293" y1="-2.8355" x2="293.148" y2="144.786" gradientUnits="userSpaceOnUse">
<stop stop-color="#9D9B98"/>
<stop offset="1" stop-color="#797775"/>
</linearGradient>
<linearGradient id="paint2_linear_5_1211" x1="294.391" y1="112.928" x2="131.259" y2="394.584" gradientUnits="userSpaceOnUse">
<stop stop-color="#797775"/>
<stop offset="0.842522" stop-color="#F2EFEA"/>
<stop offset="1" stop-color="#F2EFEA"/>
</linearGradient>
<linearGradient id="paint3_linear_5_1211" x1="219.958" y1="383.342" x2="219.958" y2="57.5283" gradientUnits="userSpaceOnUse">
<stop stop-color="#9D9B98"/>
<stop offset="1" stop-color="#F2EFEA"/>
</linearGradient>
<linearGradient id="paint4_linear_5_1211" x1="331.606" y1="254.527" x2="246.656" y2="18.2492" gradientUnits="userSpaceOnUse">
<stop stop-color="#9D9B98"/>
<stop offset="1" stop-color="#F2EFEA"/>
</linearGradient>
<linearGradient id="paint5_linear_5_1211" x1="326.183" y1="395.103" x2="197.09" y2="36.0458" gradientUnits="userSpaceOnUse">
<stop stop-color="#44433E"/>
<stop offset="1" stop-color="#F2EFEA"/>
</linearGradient>
<linearGradient id="paint6_linear_5_1211" x1="246.847" y1="49.9252" x2="246.847" y2="210.195" gradientUnits="userSpaceOnUse">
<stop stop-color="#F2EFEA"/>
<stop offset="1" stop-color="#F2EFEA"/>
</linearGradient>
<linearGradient id="paint7_linear_5_1211" x1="196.664" y1="42.4544" x2="249.09" y2="8.48016" gradientUnits="userSpaceOnUse">
<stop stop-color="#FAF6F2"/>
<stop offset="1" stop-color="#FFFBF7"/>
</linearGradient>
<linearGradient id="paint8_linear_5_1211" x1="186.453" y1="14.5324" x2="246.112" y2="14.5324" gradientUnits="userSpaceOnUse">
<stop stop-color="#B0AEAB"/>
<stop offset="1" stop-color="#FAF6F2"/>
</linearGradient>
<linearGradient id="paint9_linear_5_1211" x1="339.601" y1="48.8128" x2="257.963" y2="4.50337" gradientUnits="userSpaceOnUse">
<stop stop-color="#FFFBF7"/>
<stop offset="0.527027" stop-color="#FFFBF7"/>
<stop offset="1" stop-color="#B4B2AF"/>
</linearGradient>
<linearGradient id="paint10_linear_5_1211" x1="203.507" y1="7.01429" x2="303.053" y2="7.01429" gradientUnits="userSpaceOnUse">
<stop stop-color="#CCC9C6"/>
<stop offset="1" stop-color="#FAF6F2"/>
</linearGradient>
<linearGradient id="paint11_linear_5_1211" x1="182.284" y1="21.934" x2="171.635" y2="206.589" gradientUnits="userSpaceOnUse">
<stop stop-color="#FFFBF7"/>
<stop offset="1" stop-color="#FFFBF7"/>
</linearGradient>
<linearGradient id="paint12_linear_5_1211" x1="210.277" y1="291.948" x2="319.267" y2="291.948" gradientUnits="userSpaceOnUse">
<stop stop-color="#DAD7D3"/>
<stop offset="1" stop-color="#FAF6F2"/>
</linearGradient>
<linearGradient id="paint13_linear_5_1211" x1="207.607" y1="136.098" x2="203.958" y2="67.1111" gradientUnits="userSpaceOnUse">
<stop stop-color="#BBB8B5"/>
<stop offset="1" stop-color="#FAF6F2"/>
</linearGradient>
<linearGradient id="paint14_linear_5_1211" x1="248.617" y1="36.0756" x2="248.617" y2="406.97" gradientUnits="userSpaceOnUse">
<stop stop-color="#DAD7D3"/>
<stop offset="0.512418" stop-color="#FFFBF7"/>
<stop offset="1" stop-color="#EEEBE7"/>
</linearGradient>
<linearGradient id="paint15_linear_5_1211" x1="248.617" y1="14.317" x2="248.617" y2="385.211" gradientUnits="userSpaceOnUse">
<stop stop-color="#DAD7D3"/>
<stop offset="0.512418" stop-color="#FFFBF7"/>
<stop offset="1" stop-color="#EEEBE7"/>
</linearGradient>
<linearGradient id="paint16_linear_5_1211" x1="267.224" y1="388.402" x2="215.248" y2="174.573" gradientUnits="userSpaceOnUse">
<stop stop-color="#FAF6F2"/>
<stop offset="0.512418" stop-color="#FFFBF7"/>
<stop offset="0.677314" stop-color="#FFFBF7"/>
<stop offset="0.90099" stop-color="#EBE7E3"/>
<stop offset="1" stop-color="#CCC9C6"/>
</linearGradient>
<linearGradient id="paint17_linear_5_1211" x1="196.735" y1="50.7914" x2="161.661" y2="111.348" gradientUnits="userSpaceOnUse">
<stop stop-color="#791426"/>
<stop offset="0.534653" stop-color="#AF1C3B"/>
<stop offset="1" stop-color="#791426"/>
</linearGradient>
<linearGradient id="paint18_linear_5_1211" x1="190.079" y1="46.9355" x2="155.002" y2="107.497" gradientUnits="userSpaceOnUse">
<stop stop-color="#791426"/>
<stop offset="0.534653" stop-color="#AF1C3B"/>
<stop offset="1" stop-color="#791426"/>
</linearGradient>
<linearGradient id="paint19_linear_5_1211" x1="207.323" y1="56.9244" x2="172.25" y2="117.48" gradientUnits="userSpaceOnUse">
<stop stop-color="#791426"/>
<stop offset="0.534653" stop-color="#AF1C3B"/>
<stop offset="1" stop-color="#791426"/>
</linearGradient>
<linearGradient id="paint20_linear_5_1211" x1="208.19" y1="540.696" x2="340.525" y2="226.285" gradientUnits="userSpaceOnUse">
<stop stop-color="#791426"/>
<stop offset="0.534653" stop-color="#AF1C3B"/>
<stop offset="1" stop-color="#791426"/>
</linearGradient>
<linearGradient id="paint21_linear_5_1211" x1="206.33" y1="156.793" x2="360.601" y2="502.193" gradientUnits="userSpaceOnUse">
<stop stop-color="#791426"/>
<stop offset="0.534653" stop-color="#AF1C3B"/>
<stop offset="1" stop-color="#791426"/>
</linearGradient>
</defs>
</svg>
